<svg xmlns="http://www.w3.org/2000/svg" xmlns:xlink="http://www.w3.org/1999/xlink" width="2000" zoomAndPan="magnify" viewBox="0 0 1500 1499.999933" height="2000" preserveAspectRatio="xMidYMid meet" version="1.0"><defs><clipPath id="bae551b067"><path d="M 39.15625 39.15625 L 1460.84375 39.15625 L 1460.84375 1460.84375 L 39.15625 1460.84375 Z M 39.15625 39.15625 " clip-rule="nonzero"/></clipPath><clipPath id="720bd43011"><path d="M 57.90625 39.15625 L 1442.09375 39.15625 C 1452.449219 39.15625 1460.84375 47.550781 1460.84375 57.90625 L 1460.84375 1442.09375 C 1460.84375 1452.449219 1452.449219 1460.84375 1442.09375 1460.84375 L 57.90625 1460.84375 C 47.550781 1460.84375 39.15625 1452.449219 39.15625 1442.09375 L 39.15625 57.90625 C 39.15625 47.550781 47.550781 39.15625 57.90625 39.15625 Z M 57.90625 39.15625 " clip-rule="nonzero"/></clipPath><clipPath id="8c12dbbdb7"><path d="M 0.15625 0.15625 L 1421.84375 0.15625 L 1421.84375 1421.84375 L 0.15625 1421.84375 Z M 0.15625 0.15625 " clip-rule="nonzero"/></clipPath><clipPath id="e7b36e5d4f"><path d="M 18.90625 0.15625 L 1403.09375 0.15625 C 1413.449219 0.15625 1421.84375 8.550781 1421.84375 18.90625 L 1421.84375 1403.09375 C 1421.84375 1413.449219 1413.449219 1421.84375 1403.09375 1421.84375 L 18.90625 1421.84375 C 8.550781 1421.84375 0.15625 1413.449219 0.15625 1403.09375 L 0.15625 18.90625 C 0.15625 8.550781 8.550781 0.15625 18.90625 0.15625 Z M 18.90625 0.15625 " clip-rule="nonzero"/></clipPath><clipPath id="f89b1ad625"><rect x="0" width="1422" y="0" height="1422"/></clipPath><clipPath id="8ef36532ef"><path d="M 427 434 L 1066 434 L 1066 1073 L 427 1073 Z M 427 434 " clip-rule="nonzero"/></clipPath><clipPath id="79f82dfda9"><path d="M 207.722656 749.503906 L 749.71875 207.507812 L 1292.246094 750.035156 L 750.25 1292.03125 Z M 207.722656 749.503906 " clip-rule="nonzero"/></clipPath><clipPath id="1152aa0fff"><path d="M 207.722656 749.503906 L 749.71875 207.507812 L 1292.246094 750.035156 L 750.25 1292.03125 Z M 207.722656 749.503906 " clip-rule="nonzero"/></clipPath><clipPath id="0461c15fe7"><path d="M 207.722656 749.503906 L 749.71875 207.507812 L 1292.246094 750.035156 L 750.25 1292.03125 Z M 207.722656 749.503906 " clip-rule="nonzero"/></clipPath></defs><g clip-path="url(#bae551b067)"><g clip-path="url(#720bd43011)"><g transform="matrix(1, 0, 0, 1, 39, 39)"><g clip-path="url(#f89b1ad625)"><g clip-path="url(#8c12dbbdb7)"><g clip-path="url(#e7b36e5d4f)"><path fill="#00b495" d="M 0.15625 0.15625 L 1421.84375 0.15625 L 1421.84375 1421.84375 L 0.15625 1421.84375 Z M 0.15625 0.15625 " fill-opacity="1" fill-rule="nonzero"/></g></g></g></g></g></g><g clip-path="url(#8ef36532ef)"><g clip-path="url(#79f82dfda9)"><g clip-path="url(#1152aa0fff)"><g clip-path="url(#0461c15fe7)"><path fill="#000000" d="M 1065.324219 523.585938 C 924.089844 781.433594 1003.046875 919.976562 1062.675781 979.605469 L 969.707031 1072.578125 C 921.71875 1024.589844 839.433594 914.1875 857.609375 735.035156 L 525.609375 1067.035156 L 432.71875 974.144531 L 764.714844 642.148438 C 585.570312 660.324219 475.164062 578.035156 427.179688 530.046875 L 520.148438 437.078125 C 579.785156 496.714844 718.328125 575.671875 976.160156 434.4375 Z M 1065.324219 523.585938 " fill-opacity="1" fill-rule="nonzero"/></g></g></g></g></svg>